<svg width="256" height="27" viewBox="0 0 256 27" fill="none" xmlns="http://www.w3.org/2000/svg">
<path fill-rule="evenodd" clip-rule="evenodd" d="M0 2.10938C0 0.9444 8.68296 0 19.3939 0H236.606C247.317 0 256 0.944399 256 2.10938V24.8906C256 26.0556 247.317 27 236.606 27H19.3939C8.68297 27 0 26.0556 0 24.8906V2.10938ZM19.3939 1.6875C17.2517 1.6875 4 3.267 4 3.5V24C4 24.233 17.2517 25.3125 19.3939 25.3125H236.606C238.748 25.3125 252.5 24.733 252.5 24.5V3C252.515 2.39062 238.748 1.6875 236.606 1.6875H19.3939Z" fill="#E2E2E2"/>
</svg>
